<?xml version="1.0" standalone="no"?>
<!DOCTYPE svg PUBLIC "-//W3C//DTD SVG 20010904//EN"
 "http://www.w3.org/TR/2001/REC-SVG-20010904/DTD/svg10.dtd">
<svg version="1.0" xmlns="http://www.w3.org/2000/svg"
 width="256.000000pt" height="256.000000pt" viewBox="0 0 256.000000 256.000000"
 preserveAspectRatio="xMidYMid meet">

<g transform="translate(0.000000,256.000000) scale(0.100000,-0.100000)"
fill="#000000" stroke="none">
<path d="M1623 1814 c-23 -8 -49 -26 -57 -40 l-16 -24 57 0 58 -1 -105 -36
-105 -36 -531 1 c-585 1 -572 2 -618 -61 -20 -27 -21 -42 -22 -450 -1 -232 1
-453 4 -491 6 -88 34 -122 118 -151 33 -10 79 -28 104 -40 l45 -20 -42 -3
c-24 -2 -43 -5 -43 -7 0 -15 70 -67 104 -78 31 -9 206 -12 721 -12 753 0 736
-1 800 65 l29 30 -43 0 c-23 0 -40 4 -37 9 3 4 47 23 98 41 57 20 105 43 123
61 l30 29 3 485 c3 529 2 535 -54 572 -24 15 -57 19 -209 24 -167 5 -186 7
-260 35 l-80 29 43 3 c23 2 42 6 42 10 -1 12 -24 37 -50 55 -29 20 -51 20
-107 1z m-3 -231 c0 -4 -12 -19 -26 -34 l-25 -26 34 -38 c19 -21 40 -55 46
-76 39 -129 40 -468 2 -589 -24 -77 -73 -131 -141 -155 -74 -27 -266 -38 -555
-32 -148 3 -281 8 -295 11 -14 3 -38 8 -55 11 -16 4 -40 11 -52 17 -17 8 -29
5 -66 -21 -25 -17 -50 -31 -56 -31 -5 0 -19 12 -30 26 -21 26 -21 37 -21 461
l0 434 25 24 24 25 596 0 c327 0 595 -3 595 -7z m398 -80 c-16 -4 -68 -120
-68 -153 -1 -10 -7 -8 -20 9 -23 26 -26 87 -7 112 19 24 49 38 82 38 17 -1 22
-3 13 -6z m62 -37 c29 -55 4 -119 -53 -134 -17 -5 -33 -8 -34 -8 -1 1 14 33
33 71 18 39 32 76 29 83 -8 22 11 13 25 -12z m-19 -274 c24 -22 31 -36 31 -65
0 -21 -6 -44 -12 -53 -11 -12 -18 -4 -46 53 -19 37 -42 74 -51 81 -15 10 -13
12 15 12 21 0 43 -10 63 -28z m-116 -1 c-7 -13 51 -132 72 -148 15 -11 13 -13
-14 -13 -48 0 -93 43 -93 89 0 20 7 47 16 59 14 21 31 32 19 13z"/>
<path d="M947 1463 c-4 -3 -7 -19 -7 -35 l0 -28 100 0 100 0 0 35 0 35 -93 0
c-52 0 -97 -3 -100 -7z"/>
<path d="M620 1387 c0 -50 2 -54 23 -53 20 1 22 6 22 51 0 44 -3 50 -22 53
-21 3 -23 0 -23 -51z"/>
<path d="M720 1347 c-49 -66 -51 -79 -7 -75 26 2 33 8 35 28 5 34 16 43 41 35
15 -4 21 -15 21 -36 0 -27 3 -29 35 -29 l35 0 0 65 0 65 -60 0 -59 0 -41 -53z"/>
<path d="M1205 1271 l7 -130 -33 -3 c-30 -3 -35 -7 -40 -38 -6 -32 -8 -28 -13
20 -2 23 -40 19 -42 -5 0 -11 -1 -53 -2 -93 -1 -51 -5 -71 -13 -66 -8 4 -10
29 -6 70 l5 64 -29 0 -29 0 0 -68 c0 -61 -2 -68 -20 -69 -18 -2 -20 4 -20 53
0 40 4 54 14 54 11 0 14 10 12 38 l-2 37 -119 -1 c-66 -1 -146 -2 -177 -3
l-58 -1 4 -71 c3 -52 12 -85 33 -127 l28 -57 85 0 85 0 3 -32 3 -33 64 0 64 0
3 -52 c3 -45 6 -53 24 -56 24 -3 34 19 34 76 l0 32 65 0 65 0 0 29 c0 29 -1
29 -67 35 -38 3 -77 5 -88 4 -11 -1 -39 -1 -62 0 -35 2 -43 6 -43 21 0 11 3
22 8 24 4 3 108 8 231 12 124 3 228 8 232 10 11 7 29 91 29 136 0 60 -19 116
-41 122 -20 5 -26 32 -9 42 25 15 4 70 -49 128 -22 24 -32 27 -84 27 l-59 0 7
-129z m123 26 c3 -24 0 -27 -27 -27 -26 0 -31 4 -31 24 0 15 7 26 18 29 28 7
37 2 40 -26z m-578 -197 c0 -5 -2 -10 -4 -10 -3 0 -8 5 -11 10 -3 6 -1 10 4
10 6 0 11 -4 11 -10z m50 0 c0 -5 -7 -7 -15 -4 -8 4 -15 8 -15 10 0 2 7 4 15
4 8 0 15 -4 15 -10z m60 6 c0 -11 -19 -15 -25 -6 -3 5 1 10 9 10 9 0 16 -2 16
-4z m90 -6 c0 -5 -2 -10 -4 -10 -3 0 -8 5 -11 10 -3 6 -1 10 4 10 6 0 11 -4
11 -10z m330 0 c0 -5 -7 -10 -15 -10 -8 0 -15 5 -15 10 0 6 7 10 15 10 8 0 15
-4 15 -10z m120 0 c0 -5 -4 -10 -10 -10 -5 0 -10 5 -10 10 0 6 5 10 10 10 6 0
10 -4 10 -10z m-440 -91 l0 -58 -95 -3 c-53 -2 -100 -1 -105 0 -6 2 -10 30
-10 63 l0 59 105 -2 105 -2 0 -57z m90 2 c0 -34 -4 -51 -15 -55 -12 -4 -15 5
-15 49 0 42 3 55 15 55 11 0 15 -12 15 -49z m47 -33 c-2 -18 -4 -6 -4 27 0 33
2 48 4 33 2 -15 2 -42 0 -60z m78 12 c3 -5 1 -10 -4 -10 -6 0 -11 5 -11 10 0
6 2 10 4 10 3 0 8 -4 11 -10z"/>
<path d="M940 1300 c0 -28 3 -30 35 -30 32 0 35 2 35 30 0 28 -3 30 -35 30
-32 0 -35 -2 -35 -30z"/>
<path d="M1070 1300 c0 -28 3 -30 35 -30 32 0 35 2 35 30 0 28 -3 30 -35 30
-32 0 -35 -2 -35 -30z"/>
<path d="M1010 1130 c0 -5 5 -10 10 -10 6 0 10 5 10 10 0 6 -4 10 -10 10 -5 0
-10 -4 -10 -10z"/>
<path d="M1050 1130 c0 -5 5 -10 11 -10 5 0 7 5 4 10 -3 6 -8 10 -11 10 -2 0
-4 -4 -4 -10z"/>
<path d="M552 941 c2 -134 4 -150 20 -154 10 -3 20 -2 22 1 2 4 5 73 5 155 l2
147 -26 0 -26 0 3 -149z"/>
</g>
</svg>
